<?xml version="1.0" standalone="no"?>
<!DOCTYPE svg PUBLIC "-//W3C//DTD SVG 20010904//EN"
 "http://www.w3.org/TR/2001/REC-SVG-20010904/DTD/svg10.dtd">
<svg version="1.0" xmlns="http://www.w3.org/2000/svg"
 width="300.000000pt" height="300.000000pt" viewBox="0 0 300.000000 300.000000"
 preserveAspectRatio="xMidYMid meet">
<metadata>
Created by potrace 1.11, written by Peter Selinger 2001-2013
</metadata>
<g transform="translate(0.000000,300.000000) scale(0.100000,-0.100000)"
fill="#000000" stroke="none">
<path d="M678 2860 c-272 -46 -435 -194 -468 -424 -10 -72 -10 -97 4 -162 40
-197 159 -278 546 -370 435 -104 543 -177 543 -368 1 -156 -83 -250 -260 -292
-88 -22 -293 -22 -388 -1 -149 32 -310 111 -396 194 l-36 35 -42 -73 -42 -73
23 -19 c147 -119 322 -194 522 -223 281 -42 554 23 686 162 28 30 53 54 56 54
2 0 4 -247 4 -550 l0 -550 85 0 85 0 0 275 0 275 168 172 169 172 189 -249
c339 -446 449 -590 471 -618 21 -27 24 -28 113 -25 l92 3 -188 245 c-104 135
-201 261 -216 280 -15 19 -98 127 -184 240 -86 113 -160 210 -165 215 -4 6 41
62 109 136 64 69 226 243 360 387 l243 262 -95 0 -95 0 -248 -263 c-136 -144
-354 -374 -483 -511 l-235 -247 -3 510 -2 511 -85 0 -85 0 0 -85 c0 -47 -3
-85 -7 -85 -3 0 -29 22 -58 49 -90 85 -210 134 -485 196 -206 47 -284 71 -353
107 -113 60 -153 133 -145 264 11 170 124 269 337 296 209 26 429 -30 553
-141 l46 -41 21 35 c12 19 30 50 41 69 l21 34 -65 46 c-146 105 -316 157 -506
155 -58 -1 -126 -5 -152 -9z"/>
</g>
</svg>
