<?xml version="1.0" standalone="no"?>
<!DOCTYPE svg PUBLIC "-//W3C//DTD SVG 20010904//EN"
 "http://www.w3.org/TR/2001/REC-SVG-20010904/DTD/svg10.dtd">
<svg version="1.0" xmlns="http://www.w3.org/2000/svg"
 width="300.000000pt" height="300.000000pt" viewBox="0 0 300.000000 300.000000"
 preserveAspectRatio="xMidYMid meet">
<metadata>
Created by potrace 1.11, written by Peter Selinger 2001-2013
</metadata>
<g transform="translate(0.000000,300.000000) scale(0.100000,-0.100000)"
fill="#000000" stroke="none">
<path d="M695 2864 c-11 -2 -45 -9 -75 -15 -30 -6 -96 -30 -146 -54 -151 -73
-230 -175 -262 -339 -30 -151 11 -292 108 -378 87 -77 159 -105 485 -188 321
-81 418 -128 469 -231 21 -43 26 -67 26 -129 0 -140 -66 -223 -215 -272 -62
-20 -89 -23 -240 -23 -146 0 -181 3 -247 22 -129 38 -255 104 -336 178 l-40
35 -41 -69 c-22 -38 -41 -72 -41 -74 0 -12 124 -96 204 -138 166 -87 358 -127
564 -116 209 11 341 59 451 163 l67 63 1 -62 c0 -34 1 -281 2 -549 l1 -488 85
0 85 0 0 273 0 274 168 173 167 172 340 -446 339 -446 94 0 c52 0 92 4 90 9
-1 5 -169 225 -373 490 -203 264 -370 487 -370 495 0 7 158 183 350 390 193
207 351 380 353 384 1 4 -40 6 -92 6 l-93 -2 -34 -35 c-19 -20 -236 -250 -484
-512 l-450 -475 -3 510 -2 510 -88 0 -87 0 1 -85 c0 -47 -3 -85 -7 -85 -5 0
-16 11 -25 25 -20 30 -131 104 -199 132 -70 29 -167 57 -330 93 -386 88 -485
157 -485 341 0 113 57 211 154 265 77 42 164 59 306 58 178 -1 327 -51 435
-146 l44 -38 41 67 40 68 -32 28 c-82 71 -231 139 -355 163 -67 13 -268 18
-318 8z"/>
</g>
</svg>
