<?xml version="1.0" standalone="no"?>
<!DOCTYPE svg PUBLIC "-//W3C//DTD SVG 20010904//EN"
 "http://www.w3.org/TR/2001/REC-SVG-20010904/DTD/svg10.dtd">
<svg version="1.0" xmlns="http://www.w3.org/2000/svg"
 width="300.000000pt" height="300.000000pt" viewBox="0 0 300.000000 300.000000"
 preserveAspectRatio="xMidYMid meet">
<metadata>
Created by potrace 1.11, written by Peter Selinger 2001-2013
</metadata>
<g transform="translate(0.000000,300.000000) scale(0.100000,-0.100000)"
fill="#000000" stroke="none">
<path d="M1115 2706 c-100 -17 -175 -36 -345 -91 -74 -24 -152 -46 -172 -50
-21 -4 -36 -11 -35 -16 1 -5 -29 -20 -67 -34 -104 -36 -183 -92 -214 -150 -19
-36 -23 -67 -22 -164 0 -60 4 -78 23 -101 12 -16 26 -29 31 -29 6 -1 19 -10
31 -21 26 -24 115 -47 231 -60 154 -17 207 -28 287 -58 91 -35 127 -57 127
-76 0 -8 -24 -42 -52 -76 -46 -53 -69 -70 -168 -120 -144 -72 -232 -100 -319
-100 -96 0 -104 -8 -105 -109 -1 -46 2 -85 7 -88 4 -2 5 -8 2 -13 -7 -12 28
-82 50 -100 27 -23 214 -7 305 25 177 64 353 177 424 273 66 90 86 147 86 243
0 76 -3 90 -25 120 -13 19 -32 48 -41 66 -9 17 -25 34 -35 36 -13 3 -19 14
-19 32 0 53 -67 135 -110 135 -11 0 -24 9 -30 20 -6 12 -33 26 -68 36 -31 9
-63 22 -71 29 -20 19 -6 45 23 45 14 0 43 6 63 14 48 17 180 46 211 46 13 0
31 -4 41 -9 10 -6 59 -7 116 -2 55 4 130 3 168 -1 65 -8 69 -7 112 22 52 36
59 70 24 114 -12 15 -31 46 -43 69 -66 124 -68 126 -121 137 -80 18 -214 20
-300 6z"/>
<path d="M1551 1813 c-17 -16 -47 -62 -67 -103 -20 -41 -45 -86 -54 -100 -10
-14 -29 -63 -42 -110 -14 -47 -53 -155 -86 -240 -76 -198 -107 -296 -121 -390
-7 -41 -15 -77 -20 -80 -28 -18 -29 -163 -2 -179 8 -5 11 -16 8 -26 -4 -9 4
-43 18 -75 14 -33 25 -65 25 -72 1 -19 87 -68 119 -68 59 0 123 66 260 268 64
93 141 172 169 172 8 0 41 -26 73 -58 90 -90 224 -182 266 -182 21 0 36 -6 39
-15 11 -29 131 -57 261 -63 117 -4 124 -3 165 21 80 47 138 131 138 198 0 37
-158 160 -168 131 -5 -15 -166 -16 -267 -2 -103 14 -208 70 -252 134 l-34 49
28 29 c14 15 30 28 33 28 4 0 22 13 41 30 105 92 158 132 263 194 166 100 225
147 247 196 27 60 24 87 -12 118 -18 15 -41 37 -52 50 -11 12 -26 22 -33 22
-6 0 -26 16 -43 35 l-30 35 -57 -25 c-37 -16 -54 -29 -51 -38 3 -9 -3 -14 -21
-14 -33 0 -97 -40 -256 -158 -66 -50 -152 -113 -191 -140 -38 -27 -87 -65
-107 -83 -21 -19 -38 -30 -38 -24 0 28 41 137 63 165 13 18 28 47 31 65 4 17
12 32 17 32 6 0 17 16 25 36 19 45 11 90 -28 150 -22 36 -33 45 -49 41 -13 -4
-25 2 -35 19 -9 13 -24 24 -34 24 -10 0 -34 7 -53 15 -48 20 -52 19 -86 -12z"/>
</g>
</svg>
